<?xml version="1.0" encoding="UTF-8" standalone="no"?>
<!-- Generator: Adobe Illustrator 19.0.0, SVG Export Plug-In . SVG Version: 6.00 Build 0)  -->

<svg
   xmlns:dc="http://purl.org/dc/elements/1.1/"
   xmlns:cc="http://creativecommons.org/ns#"
   xmlns:rdf="http://www.w3.org/1999/02/22-rdf-syntax-ns#"
   xmlns:svg="http://www.w3.org/2000/svg"
   xmlns="http://www.w3.org/2000/svg"
   xmlns:sodipodi="http://sodipodi.sourceforge.net/DTD/sodipodi-0.dtd"
   xmlns:inkscape="http://www.inkscape.org/namespaces/inkscape"
   version="1.1"
   id="Capa_1"
   x="0px"
   y="0px"
   viewBox="0 0 504.986 504.986"
   style="enable-background:new 0 0 504.986 504.986;"
   xml:space="preserve"
   sodipodi:docname="cpu.svg"
   inkscape:version="0.92.5 (2060ec1f9f, 2020-04-08)"><metadata
   id="metadata49"><rdf:RDF><cc:Work
       rdf:about=""><dc:format>image/svg+xml</dc:format><dc:type
         rdf:resource="http://purl.org/dc/dcmitype/StillImage" /><dc:title></dc:title></cc:Work></rdf:RDF></metadata><defs
   id="defs47" /><sodipodi:namedview
   pagecolor="#ffffff"
   bordercolor="#0DA8FF"
   borderopacity="10"
   objecttolerance="10"
   gridtolerance="10"
   guidetolerance="10"
   inkscape:pageopacity="0"
   inkscape:pageshadow="0  "
   inkscape:window-width="1866"
   inkscape:window-height="1016"
   id="namedview45"
   showgrid="false"
   inkscape:zoom="0.47"
   inkscape:cx="252.493"
   inkscape:cy="252.493"
   inkscape:window-x="54"
   inkscape:window-y="27"
   inkscape:window-maximized="1"
   inkscape:current-layer="g12" />
<g
   id="g6">
	<g
   id="g4">
		<path
   d="M361.206,129.753H143.781c-7.715,0-14.027,6.312-14.027,14.027v217.425c0,7.715,6.312,14.027,14.027,14.027h217.425    c7.715,0,14.027-6.312,14.027-14.027V143.781C375.233,136.066,368.921,129.753,361.206,129.753z M347.178,347.178h-189.37v-52.603    h28.055c7.715,0,14.027-6.312,14.027-14.027c0-7.715-6.312-14.027-14.027-14.027h-28.055v-28.055h56.11    c7.715,0,14.027-6.312,14.027-14.027c0-7.715-6.312-14.027-14.027-14.027h-56.11v-52.603h189.37V347.178z"
   id="path2" />
	</g>
</g>
<g
   id="g12">
	<g
   id="g10">
		<path
   d="M504.986,216.022c0-7.715-6.312-14.027-14.027-14.027h-44.888v-44.186h44.888c7.715,0,14.027-6.312,14.027-14.027    s-6.312-14.027-14.027-14.027h-44.888V99.595c0-22.444-18.236-40.679-40.679-40.679h-30.159V14.027    C375.233,6.312,368.921,0,361.206,0c-7.715,0-14.027,6.312-14.027,14.027v44.888H302.29V14.027C302.29,6.312,295.978,0,288.263,0    c-7.715,0-14.027,6.312-14.027,14.027v44.888h-44.888V14.027C229.348,6.312,223.036,0,215.321,0    c-7.715,0-14.027,6.312-14.027,14.027v44.888h-43.485V14.027C157.808,6.312,151.496,0,143.781,0s-14.027,6.312-14.027,14.027    v44.888H99.595c-22.444,0-40.679,18.236-40.679,40.679v30.159H14.027C6.312,129.753,0,136.066,0,143.781    s6.312,14.027,14.027,14.027h44.888v44.888H14.027C6.312,202.696,0,209.008,0,216.723c0,7.715,6.312,14.027,14.027,14.027h44.888    v44.888H14.027C6.312,275.638,0,281.951,0,289.666c0,7.715,6.312,14.027,14.027,14.027h44.888v43.485H14.027    C6.312,347.178,0,353.49,0,361.206c0,7.715,6.312,14.027,14.027,14.027h44.888v30.159c0,22.444,18.236,40.679,40.679,40.679    h30.159v44.888c0,7.715,6.312,14.027,14.027,14.027s14.027-6.312,14.027-14.027v-44.888h44.888v44.888    c0,7.715,6.312,14.027,14.027,14.027c7.715,0,14.027-6.312,14.027-14.027v-44.888h44.888v44.888    c0,7.715,6.312,14.027,14.027,14.027c7.715,0,14.027-6.312,14.027-14.027v-44.888h43.485v44.888    c0,7.715,6.312,14.027,14.027,14.027c7.715,0,14.027-6.312,14.027-14.027v-44.888h30.159c22.444,0,40.679-18.236,40.679-40.679    v-30.159h44.888c7.715,0,14.027-6.312,14.027-14.027c0-7.715-6.312-14.027-14.027-14.027h-44.888V302.29h44.888    c7.715,0,14.027-6.312,14.027-14.027c0-7.715-6.312-14.027-14.027-14.027h-44.888v-44.888h44.888v0.701    C498.674,230.049,504.986,223.737,504.986,216.022z M418.718,405.392h-0.701c0,7.014-5.611,12.625-12.625,12.625H99.595    c-7.014,0-12.625-5.611-12.625-12.625V99.595c0-7.014,5.611-12.625,12.625-12.625h306.499c7.014,0,12.625,5.611,12.625,12.625    V405.392z"
   id="path8" />
	</g>
<path
   style="fill:#f9f9f9;stroke-width:2.13977122"
   d="m 174.92629,87.410497 c 42.66169,-0.324045 112.47172,-0.324045 155.13341,0 42.66169,0.324045 7.75667,0.589172 -77.5667,0.589172 -85.32338,0 -120.2284,-0.265127 -77.56671,-0.589172 z"
   id="path3754"
   inkscape:connector-curvature="0" /><path
   style="fill:#f9f9f9;stroke-width:2.13977122"
   d="m 174.92629,87.410497 c 42.66169,-0.324045 112.47172,-0.324045 155.13341,0 42.66169,0.324045 7.75667,0.589172 -77.5667,0.589172 -85.32338,0 -120.2284,-0.265127 -77.56671,-0.589172 z"
   id="path3756"
   inkscape:connector-curvature="0" /><path
   style="fill:#147fbb;stroke-width:2.13977122;fill-opacity:0"
   d="m 134.80558,499.85054 c -3.8005,-3.80051 -4.27954,-7.13256 -4.27954,-29.76747 v -25.48795 l -23.17697,-0.72424 C 85.643003,443.19257 83.659153,442.75499 76.089486,436.9757 63.985168,427.73431 60.016654,417.01174 59.960586,393.39693 l -0.04699,-19.79289 -25.142311,-0.0328 C 20.94301,373.55417 8.5694985,372.83109 7.2745886,371.96646 -0.47437164,366.79234 0.09916962,354.59417 8.2977154,350.20644 10.640478,348.95264 23.212454,347.92679 36.235439,347.92679 H 59.913592 V 325.45919 302.9916 H 35.543276 c -27.598108,0 -33.9384476,-2.59135 -33.9384476,-13.87094 0,-10.05385 4.9043655,-11.80632 33.0404846,-11.80632 H 59.913592 V 253.77686 230.23938 H 35.543276 c -27.3088773,0 -33.9384476,-2.63637 -33.9384476,-13.49629 0,-11.0553 2.9408745,-12.18097 31.8236286,-12.18097 H 59.913592 V 181.02464 157.48716 H 35.543276 c -27.3088773,0 -33.9384476,-2.63638 -33.9384476,-13.49629 0,-10.78029 3.0150556,-12.00152 31.2354166,-12.65173 l 26.003462,-0.59912 1.141461,-21.39771 C 61.18271,86.893286 63.883713,78.895984 73.083854,70.558875 82.041482,62.441531 88.409873,60.513558 109.64228,59.491146 l 20.88376,-1.005624 V 34.164235 c 0,-21.46826 0.50202,-24.8233028 4.27954,-28.60083 5.34046,-5.34045377 13.20888,-5.50193233 17.85642,-0.3664557 2.86941,3.170668 3.54129,8.6512977 3.54129,28.8869117 v 24.973823 h 23.53749 23.53748 V 33.712069 c 0,-21.83693 0.5417,-25.8358515 3.91309,-28.8869116 5.26154,-4.76163359 12.28113,-4.46524798 17.48462,0.7382476 3.78337,3.7833634 4.27954,7.13257 4.27954,28.886911 V 59.057684 H 252.493 276.03048 V 33.712069 c 0,-21.83693 0.5417,-25.8358515 3.91308,-28.8869116 5.26155,-4.76163359 12.28113,-4.46524798 17.48463,0.7382476 3.78337,3.7833634 4.27954,7.13257 4.27954,28.886911 v 24.607368 h 23.53749 23.53748 V 33.712069 c 0,-21.83693 0.5417,-25.8358515 3.91308,-28.8869116 5.26155,-4.76163359 12.28113,-4.46524798 17.48463,0.7382476 3.77753,3.7775272 4.27954,7.13257 4.27954,28.60083 v 24.321287 l 20.88376,1.005624 c 21.23242,1.022412 27.6008,2.950385 36.55842,11.067729 9.20014,8.337109 11.90115,16.334411 13.09869,38.783435 l 1.14147,21.39771 26.00346,0.59912 c 28.22035,0.65021 31.23541,1.87144 31.23541,12.65173 0,10.85991 -6.62956,13.49629 -33.93844,13.49629 H 445.0724 v 22.46759 22.4676 h 24.37032 c 27.30888,0 33.93844,2.63638 33.93844,13.49629 0,11.0553 -2.94088,12.18097 -31.82361,12.18097 H 445.0724 v 23.53748 23.53748 h 25.34561 c 27.86667,0 32.42821,1.88341 32.42821,13.38921 0,10.65345 -4.28992,12.28804 -32.24941,12.28804 H 445.0724 v 23.53749 23.53748 h 23.67815 c 13.02299,0 25.59496,1.02585 27.93773,2.27965 8.19853,4.38773 8.77208,16.5859 1.02313,21.76002 -1.29492,0.86463 -13.66843,1.58681 -27.4967,1.60482 l -25.14231,0.0328 v 19.32667 c 0,38.76119 -12.25928,51.28578 -50.19937,51.28578 h -20.41308 v 25.67726 c 0,22.82423 -0.4755,26.15275 -4.27954,29.95679 -5.27214,5.27214 -10.95644,5.4525 -16.85975,0.53494 -4.04323,-3.36808 -4.55114,-6.32638 -5.05153,-29.42185 l -0.55632,-25.67725 h -22.46759 -22.4676 l -0.55632,25.67725 c -0.50039,23.09547 -1.0083,26.05377 -5.05153,29.42185 -6.31203,5.25802 -11.54578,4.66481 -16.70444,-1.89339 -3.89751,-4.95488 -4.43485,-8.5933 -4.43485,-30.02919 v -24.39119 l -23.00254,0.60734 -23.00254,0.60733 -0.55632,25.67725 c -0.50039,23.09547 -1.0083,26.05377 -5.05153,29.42185 -6.03032,5.02337 -11.50758,4.717 -16.77639,-0.93841 -3.88157,-4.16637 -4.3629,-7.47932 -4.3629,-30.02919 v -25.34617 l -23.00254,0.60734 -23.00254,0.60733 -0.55632,25.67725 c -0.50038,23.09547 -1.0083,26.05377 -5.05154,29.42185 -5.90329,4.91756 -11.5876,4.7372 -16.85974,-0.53494 z M 415.1156,414.2597 c 4.20209,-4.20209 4.27955,-7.13257 4.27955,-161.91918 0,-143.68256 -0.31354,-157.986096 -3.5413,-161.552724 C 412.48324,87.06331 404.59953,86.874709 252.2827,86.874709 H 92.252827 l -3.330991,4.755654 c -2.941235,4.199203 -3.33099,23.102287 -3.33099,161.552727 0,153.94404 0.07787,156.87493 4.279542,161.07661 4.202434,4.20242 7.13257,4.27954 162.622612,4.27954 155.49004,0 158.42018,-0.077 162.6226,-4.27954 z"
   id="path3758"
   inkscape:connector-curvature="0" /><path
   style="fill:#147fbb;fill-opacity:0;stroke-width:2.12765956"
   d="m 134.40789,500.5781 c -3.78251,-3.78251 -4.25532,-7.09219 -4.25532,-29.78723 V 445.25895 H 110.9353 c -38.5418,0 -50.995495,-12.18989 -50.995495,-49.91523 V 375.04619 H 34.40789 c -22.695036,0 -26.0047283,-0.47281 -29.7872342,-4.25532 -2.3404255,-2.34043 -4.25531916,-6.64894 -4.25531916,-9.57447 0,-2.92553 1.91489366,-7.23404 4.25531916,-9.57447 3.7838802,-3.78387 7.0921982,-4.25532 29.8616662,-4.25532 H 60.088669 L 59.482322,325.5781 58.875975,303.76959 32.355213,302.70576 C 6.3385815,301.66215 5.7742654,301.53449 2.6681198,295.98895 0.11283664,291.42691 -0.00933144,289.263 2.0350707,284.77602 5.6217943,276.90402 12.438961,275.04619 37.73789,275.04619 H 59.939805 V 252.70576 230.36534 H 34.40789 c -22.695036,0 -26.0047283,-0.47281 -29.7872342,-4.25532 -5.937957,-5.93796 -5.38631916,-13.69513 1.3507632,-18.99451 4.924615,-3.87371 8.545507,-4.40975 29.787235,-4.40975 H 59.939805 V 180.36534 158.02491 H 35.758654 c -21.241728,0 -24.86262,-0.53604 -29.787235,-4.40974 -6.73708236,-5.29939 -7.2887202,-13.05656 -1.3507632,-18.99451 3.7825059,-3.78251 7.0921982,-4.25532 29.7872342,-4.25532 h 25.531915 v -20.29753 c 0,-23.641929 3.637272,-33.211941 16.296281,-42.877086 7.275714,-5.555002 9.442438,-6.02487 30.870704,-6.694485 l 23.04578,-0.720162 V 34.432409 c 0,-22.506789 0.47633,-25.8199932 4.25532,-29.5989873 4.98486,-4.98485948 12.39059,-5.48904814 18.21036,-1.2397768 3.63744,2.6558539 4.21439,6.217469 4.83705,29.8597341 l 0.70698,26.84419 21.63344,-0.604413 21.63345,-0.604415 0.60327,-25.44323 c 0.66448,-28.0248378 2.68144,-33.0674084 13.22651,-33.0674084 10.54507,0 12.56205,5.0425706 13.22651,33.0674084 l 0.60328,25.44323 22.87234,0.603898 22.87234,0.603896 V 34.692639 c 0,-22.767019 0.47149,-26.0753821 4.25532,-29.8592173 5.93796,-5.9379569 13.69513,-5.38631908 18.99451,1.3507632 3.8737,4.9246151 4.40975,8.5455071 4.40975,29.7872351 v 24.181151 h 22.34042 22.34043 V 34.620656 c 0,-22.695036 0.47281,-26.0047283 4.25532,-29.7872343 5.44038,-5.44038404 13.70855,-5.44038404 19.14893,0 3.779,3.7789941 4.25532,7.0921983 4.25532,29.5989873 v 25.343668 l 23.04579,0.720162 c 21.42825,0.669615 23.59498,1.139483 30.8707,6.694485 12.659,9.665145 16.29628,19.235157 16.29628,42.877086 v 20.29753 h 25.53191 c 22.69505,0 26.00473,0.47281 29.78724,4.25532 5.93795,5.93795 5.38632,13.69512 -1.35077,18.99451 -4.92462,3.8737 -8.54551,4.40974 -29.78723,4.40974 h -24.18115 v 22.34043 22.34042 h 25.53191 c 22.69505,0 26.00473,0.47281 29.78724,4.25532 5.38151,5.38151 5.45323,13.14998 0.16553,17.93526 -3.3459,3.02798 -8.66683,3.76517 -29.25532,4.05315 l -25.16553,0.35202 -0.6039,22.87234 -0.60389,22.87234 h 25.60389 c 22.76703,0 26.07539,0.47149 29.85922,4.25532 5.51127,5.51127 5.42042,13.1781 -0.21671,18.28725 -3.75848,3.40649 -8.511,4.16647 -29.78723,4.76328 l -25.31521,0.71011 v 22.16223 22.16223 h 25.53191 c 22.69505,0 26.00473,0.47281 29.78724,4.25532 2.34042,2.34043 4.25532,6.64894 4.25532,9.57447 0,2.92553 -1.9149,7.23404 -4.25532,9.57447 -3.78251,3.78251 -7.09219,4.25532 -29.78724,4.25532 h -25.53191 v 20.29753 c 0,37.72534 -12.4537,49.91523 -50.99549,49.91523 h -19.21728 v 25.53192 c 0,22.69504 -0.47281,26.00472 -4.25532,29.78723 -5.69217,5.69217 -11.85008,5.36462 -18.18181,-0.96713 -4.94353,-4.94351 -5.22244,-6.53836 -5.22244,-29.86165 v -24.63924 l -21.80851,0.60636 -21.80851,0.60634 -1.06383,26.52077 c -1.05337,26.2597 -1.12143,26.55291 -6.9149,29.78723 -5.26064,2.93685 -6.44149,2.93685 -11.70213,0 -5.79346,-3.23432 -5.86153,-3.52753 -6.91489,-29.78723 l -1.06383,-26.52077 -22.87234,-0.60389 -22.87234,-0.60389 v 25.60389 c 0,22.76702 -0.47149,26.07538 -4.25532,29.85921 -5.69217,5.69217 -11.85008,5.36462 -18.18182,-0.96713 -4.94169,-4.94168 -5.22243,-6.54295 -5.22243,-29.78723 v -24.56479 h -22.34043 -22.34042 v 24.56479 c 0,23.24428 -0.28075,24.84555 -5.22244,29.78723 -6.33174,6.33175 -12.48966,6.6593 -18.18182,0.96713 z m 279.91249,-85.99817 c 4.01489,-2.93523 4.14602,-7.41642 4.70213,-160.69485 l 0.57208,-157.675405 -5.30276,-5.302753 -5.30275,-5.302751 -157.42806,0.572072 C 103.70569,86.71353 93.901952,86.979345 90.334243,90.547707 86.755709,94.1269 86.535549,103.53936 86.535549,252.95327 c 0,154.54713 0.105703,158.68345 4.130064,161.62613 6.176275,4.51621 317.477427,4.51672 323.654767,5.3e-4 z"
   id="path4565"
   inkscape:connector-curvature="0" /><path
   style="fill:#147fbb;fill-opacity:0;stroke-width:2.12765956"
   d="m 134.40789,500.5781 c -3.78251,-3.78251 -4.25532,-7.09219 -4.25532,-29.78723 V 445.25895 H 110.9353 c -38.5418,0 -50.995495,-12.18989 -50.995495,-49.91523 V 375.04619 H 34.40789 c -22.695036,0 -26.0047283,-0.47281 -29.7872342,-4.25532 -2.3404255,-2.34043 -4.25531916,-6.64894 -4.25531916,-9.57447 0,-2.92553 1.91489366,-7.23404 4.25531916,-9.57447 3.7838802,-3.78387 7.0921982,-4.25532 29.8616662,-4.25532 H 60.088669 L 59.482322,325.5781 58.875975,303.76959 32.355213,302.70576 C 6.3385815,301.66215 5.7742654,301.53449 2.6681198,295.98895 0.11283664,291.42691 -0.00933144,289.263 2.0350707,284.77602 5.6217943,276.90402 12.438961,275.04619 37.73789,275.04619 H 59.939805 V 252.70576 230.36534 H 34.40789 c -22.695036,0 -26.0047283,-0.47281 -29.7872342,-4.25532 -5.937957,-5.93796 -5.38631916,-13.69513 1.3507632,-18.99451 4.924615,-3.87371 8.545507,-4.40975 29.787235,-4.40975 H 59.939805 V 180.36534 158.02491 H 35.758654 c -21.241728,0 -24.86262,-0.53604 -29.787235,-4.40974 -6.73708236,-5.29939 -7.2887202,-13.05656 -1.3507632,-18.99451 3.7825059,-3.78251 7.0921982,-4.25532 29.7872342,-4.25532 h 25.531915 v -20.29753 c 0,-23.641929 3.637272,-33.211941 16.296281,-42.877086 7.275714,-5.555002 9.442438,-6.02487 30.870704,-6.694485 l 23.04578,-0.720162 V 34.432409 c 0,-22.506789 0.47633,-25.8199932 4.25532,-29.5989873 4.98486,-4.98485948 12.39059,-5.48904814 18.21036,-1.2397768 3.63744,2.6558539 4.21439,6.217469 4.83705,29.8597341 l 0.70698,26.84419 21.63344,-0.604413 21.63345,-0.604415 0.60327,-25.44323 c 0.66448,-28.0248378 2.68144,-33.0674084 13.22651,-33.0674084 10.54507,0 12.56205,5.0425706 13.22651,33.0674084 l 0.60328,25.44323 22.87234,0.603898 22.87234,0.603896 V 34.692639 c 0,-22.767019 0.47149,-26.0753821 4.25532,-29.8592173 5.93796,-5.9379569 13.69513,-5.38631908 18.99451,1.3507632 3.8737,4.9246151 4.40975,8.5455071 4.40975,29.7872351 v 24.181151 h 22.34042 22.34043 V 34.620656 c 0,-22.695036 0.47281,-26.0047283 4.25532,-29.7872343 5.44038,-5.44038404 13.70855,-5.44038404 19.14893,0 3.779,3.7789941 4.25532,7.0921983 4.25532,29.5989873 v 25.343668 l 23.04579,0.720162 c 21.42825,0.669615 23.59498,1.139483 30.8707,6.694485 12.659,9.665145 16.29628,19.235157 16.29628,42.877086 v 20.29753 h 25.53191 c 22.69505,0 26.00473,0.47281 29.78724,4.25532 5.93795,5.93795 5.38632,13.69512 -1.35077,18.99451 -4.92462,3.8737 -8.54551,4.40974 -29.78723,4.40974 h -24.18115 v 22.34043 22.34042 h 25.53191 c 22.69505,0 26.00473,0.47281 29.78724,4.25532 5.38151,5.38151 5.45323,13.14998 0.16553,17.93526 -3.3459,3.02798 -8.66683,3.76517 -29.25532,4.05315 l -25.16553,0.35202 -0.6039,22.87234 -0.60389,22.87234 h 25.60389 c 22.76703,0 26.07539,0.47149 29.85922,4.25532 5.51127,5.51127 5.42042,13.1781 -0.21671,18.28725 -3.75848,3.40649 -8.511,4.16647 -29.78723,4.76328 l -25.31521,0.71011 v 22.16223 22.16223 h 25.53191 c 22.69505,0 26.00473,0.47281 29.78724,4.25532 2.34042,2.34043 4.25532,6.64894 4.25532,9.57447 0,2.92553 -1.9149,7.23404 -4.25532,9.57447 -3.78251,3.78251 -7.09219,4.25532 -29.78724,4.25532 h -25.53191 v 20.29753 c 0,37.72534 -12.4537,49.91523 -50.99549,49.91523 h -19.21728 v 25.53192 c 0,22.69504 -0.47281,26.00472 -4.25532,29.78723 -5.69217,5.69217 -11.85008,5.36462 -18.18181,-0.96713 -4.94353,-4.94351 -5.22244,-6.53836 -5.22244,-29.86165 v -24.63924 l -21.80851,0.60636 -21.80851,0.60634 -1.06383,26.52077 c -1.05337,26.2597 -1.12143,26.55291 -6.9149,29.78723 -5.26064,2.93685 -6.44149,2.93685 -11.70213,0 -5.79346,-3.23432 -5.86153,-3.52753 -6.91489,-29.78723 l -1.06383,-26.52077 -22.87234,-0.60389 -22.87234,-0.60389 v 25.60389 c 0,22.76702 -0.47149,26.07538 -4.25532,29.85921 -5.69217,5.69217 -11.85008,5.36462 -18.18182,-0.96713 -4.94169,-4.94168 -5.22243,-6.54295 -5.22243,-29.78723 v -24.56479 h -22.34043 -22.34042 v 24.56479 c 0,23.24428 -0.28075,24.84555 -5.22244,29.78723 -6.33174,6.33175 -12.48966,6.6593 -18.18182,0.96713 z m 279.91249,-85.99817 c 4.01489,-2.93523 4.14602,-7.41642 4.70213,-160.69485 l 0.57208,-157.675405 -5.30276,-5.302753 -5.30275,-5.302751 -157.42806,0.572072 C 103.70569,86.71353 93.901952,86.979345 90.334243,90.547707 86.755709,94.1269 86.535549,103.53936 86.535549,252.95327 c 0,154.54713 0.105703,158.68345 4.130064,161.62613 6.176275,4.51621 317.477427,4.51672 323.654767,5.3e-4 z"
   id="path4567"
   inkscape:connector-curvature="0" /><path
   style="fill:#147fbb;fill-opacity:0.99509805;stroke-width:2.12765956"
   d="m 134.40789,500.5781 c -3.78251,-3.78251 -4.25532,-7.09219 -4.25532,-29.78723 V 445.25895 H 110.9353 c -38.5418,0 -50.995495,-12.18989 -50.995495,-49.91523 V 375.04619 H 34.40789 c -22.695036,0 -26.0047283,-0.47281 -29.7872342,-4.25532 -2.3404255,-2.34043 -4.25531916,-6.64894 -4.25531916,-9.57447 0,-2.92553 1.91489366,-7.23404 4.25531916,-9.57447 3.7838802,-3.78387 7.0921982,-4.25532 29.8616662,-4.25532 H 60.088669 L 59.482322,325.5781 58.875975,303.76959 32.355213,302.70576 C 6.3385815,301.66215 5.7742654,301.53449 2.6681198,295.98895 0.11283664,291.42691 -0.00933144,289.263 2.0350707,284.77602 5.6217943,276.90402 12.438961,275.04619 37.73789,275.04619 H 59.939805 V 252.70576 230.36534 H 34.40789 c -22.695036,0 -26.0047283,-0.47281 -29.7872342,-4.25532 -5.937957,-5.93796 -5.38631916,-13.69513 1.3507632,-18.99451 4.924615,-3.87371 8.545507,-4.40975 29.787235,-4.40975 H 59.939805 V 180.36534 158.02491 H 35.758654 c -21.241728,0 -24.86262,-0.53604 -29.787235,-4.40974 -6.73708236,-5.29939 -7.2887202,-13.05656 -1.3507632,-18.99451 3.7825059,-3.78251 7.0921982,-4.25532 29.7872342,-4.25532 h 25.531915 v -20.29753 c 0,-23.641929 3.637272,-33.211941 16.296281,-42.877086 7.275714,-5.555002 9.442438,-6.02487 30.870704,-6.694485 l 23.04578,-0.720162 V 34.432409 c 0,-22.506789 0.47633,-25.8199932 4.25532,-29.5989873 4.98486,-4.98485948 12.39059,-5.48904814 18.21036,-1.2397768 3.63744,2.6558539 4.21439,6.217469 4.83705,29.8597341 l 0.70698,26.84419 21.63344,-0.604413 21.63345,-0.604415 0.60327,-25.44323 c 0.66448,-28.0248378 2.68144,-33.0674084 13.22651,-33.0674084 10.54507,0 12.56205,5.0425706 13.22651,33.0674084 l 0.60328,25.44323 22.87234,0.603898 22.87234,0.603896 V 34.692639 c 0,-22.767019 0.47149,-26.0753821 4.25532,-29.8592173 5.93796,-5.9379569 13.69513,-5.38631908 18.99451,1.3507632 3.8737,4.9246151 4.40975,8.5455071 4.40975,29.7872351 v 24.181151 h 22.34042 22.34043 V 34.620656 c 0,-22.695036 0.47281,-26.0047283 4.25532,-29.7872343 5.44038,-5.44038404 13.70855,-5.44038404 19.14893,0 3.779,3.7789941 4.25532,7.0921983 4.25532,29.5989873 v 25.343668 l 23.04579,0.720162 c 21.42825,0.669615 23.59498,1.139483 30.8707,6.694485 12.659,9.665145 16.29628,19.235157 16.29628,42.877086 v 20.29753 h 25.53191 c 22.69505,0 26.00473,0.47281 29.78724,4.25532 5.93795,5.93795 5.38632,13.69512 -1.35077,18.99451 -4.92462,3.8737 -8.54551,4.40974 -29.78723,4.40974 h -24.18115 v 22.34043 22.34042 h 25.53191 c 22.69505,0 26.00473,0.47281 29.78724,4.25532 5.38151,5.38151 5.45323,13.14998 0.16553,17.93526 -3.3459,3.02798 -8.66683,3.76517 -29.25532,4.05315 l -25.16553,0.35202 -0.6039,22.87234 -0.60389,22.87234 h 25.60389 c 22.76703,0 26.07539,0.47149 29.85922,4.25532 5.51127,5.51127 5.42042,13.1781 -0.21671,18.28725 -3.75848,3.40649 -8.511,4.16647 -29.78723,4.76328 l -25.31521,0.71011 v 22.16223 22.16223 h 25.53191 c 22.69505,0 26.00473,0.47281 29.78724,4.25532 2.34042,2.34043 4.25532,6.64894 4.25532,9.57447 0,2.92553 -1.9149,7.23404 -4.25532,9.57447 -3.78251,3.78251 -7.09219,4.25532 -29.78724,4.25532 h -25.53191 v 20.29753 c 0,37.72534 -12.4537,49.91523 -50.99549,49.91523 h -19.21728 v 25.53192 c 0,22.69504 -0.47281,26.00472 -4.25532,29.78723 -5.69217,5.69217 -11.85008,5.36462 -18.18181,-0.96713 -4.94353,-4.94351 -5.22244,-6.53836 -5.22244,-29.86165 v -24.63924 l -21.80851,0.60636 -21.80851,0.60634 -1.06383,26.52077 c -1.05337,26.2597 -1.12143,26.55291 -6.9149,29.78723 -5.26064,2.93685 -6.44149,2.93685 -11.70213,0 -5.79346,-3.23432 -5.86153,-3.52753 -6.91489,-29.78723 l -1.06383,-26.52077 -22.87234,-0.60389 -22.87234,-0.60389 v 25.60389 c 0,22.76702 -0.47149,26.07538 -4.25532,29.85921 -5.69217,5.69217 -11.85008,5.36462 -18.18182,-0.96713 -4.94169,-4.94168 -5.22243,-6.54295 -5.22243,-29.78723 v -24.56479 h -22.34043 -22.34042 v 24.56479 c 0,23.24428 -0.28075,24.84555 -5.22244,29.78723 -6.33174,6.33175 -12.48966,6.6593 -18.18182,0.96713 z m 279.91249,-85.99817 c 4.01489,-2.93523 4.14602,-7.41642 4.70213,-160.69485 l 0.57208,-157.675405 -5.30276,-5.302753 -5.30275,-5.302751 -157.42806,0.572072 C 103.70569,86.71353 93.901952,86.979345 90.334243,90.547707 86.755709,94.1269 86.535549,103.53936 86.535549,252.95327 c 0,154.54713 0.105703,158.68345 4.130064,161.62613 6.176275,4.51621 317.477427,4.51672 323.654767,5.3e-4 z"
   id="path4569"
   inkscape:connector-curvature="0" /><path
   style="fill:#147fbb;fill-opacity:0.99509804;stroke-width:2.12765956"
   d="m 134.40789,370.79087 c -4.14927,-4.14928 -4.25532,-7.09219 -4.25532,-118.08511 0,-110.99291 0.10605,-113.93584 4.25532,-118.0851 4.14927,-4.14927 7.0922,-4.25532 118.08511,-4.25532 110.99291,0 113.93583,0.10605 118.0851,4.25532 4.14928,4.14926 4.25532,7.09219 4.25532,118.0851 0,110.99292 -0.10596,113.93583 -4.25532,118.08511 -4.14927,4.14928 -7.09219,4.25532 -118.0851,4.25532 -110.99291,0 -113.93584,-0.10604 -118.08511,-4.25532 z M 347.17385,252.70576 V 158.02491 H 252.493 157.81215 v 26.59575 26.59574 h 30.4444 c 32.68371,0 36.37592,1.02729 38.719,10.77283 0.90066,3.74613 -0.002,7.07698 -2.88217,10.63829 -4.04412,5.00009 -5.29829,5.20914 -35.2373,5.87351 l -31.04393,0.68888 v 13.67282 13.67282 h 15.72173 c 18.117,0 25.23571,3.80734 25.23571,13.49694 0,10.89456 -5.59945,14.16263 -24.26593,14.16263 h -16.69151 v 26.59575 26.59574 h 94.68085 94.68085 z"
   id="path4571"
   inkscape:connector-curvature="0" /></g>
<g
   id="g14">
</g>
<g
   id="g16">
</g>
<g
   id="g18">
</g>
<g
   id="g20">
</g>
<g
   id="g22">
</g>
<g
   id="g24">
</g>
<g
   id="g26">
</g>
<g
   id="g28">
</g>
<g
   id="g30">
</g>
<g
   id="g32">
</g>
<g
   id="g34">
</g>
<g
   id="g36">
</g>
<g
   id="g38">
</g>
<g
   id="g40">
</g>
<g
   id="g42">
</g>
</svg>