<svg width="160" height="160" viewBox="0 0 160 160" fill="none" xmlns="http://www.w3.org/2000/svg">
<path d="M80 133.334C50.592 133.334 26.6663 109.408 26.6663 80C26.6663 50.592 50.592 26.6663 80 26.6663C109.408 26.6663 133.334 50.592 133.334 80C133.334 109.408 109.408 133.334 80 133.334ZM80 31.9995C53.5339 31.9995 31.9995 53.5339 31.9995 80C31.9995 106.466 53.5339 128 80 128C106.466 128 128 106.466 128 80C128 53.5339 106.466 31.9995 80 31.9995Z" fill="#147FBB"/>
<path d="M80 160C78.5278 160 77.3328 158.805 77.3328 157.333V141.333C77.3328 139.861 78.5278 138.667 80 138.667C81.4722 138.667 82.6672 139.861 82.6672 141.333V157.333C82.6672 158.805 81.4722 160 80 160Z" fill="#147FBB"/>
<path d="M80 21.333C78.5278 21.333 77.3328 20.1392 77.3328 18.667V2.66724C77.3328 1.19507 78.5278 0 80 0C81.4722 0 82.6672 1.19507 82.6672 2.66724V18.667C82.6672 20.1392 81.4722 21.333 80 21.333Z" fill="#147FBB"/>
<path d="M18.667 82.6672H2.66724C1.19507 82.6672 0 81.4722 0 80C0 78.5278 1.19507 77.3328 2.66724 77.3328H18.667C20.1392 77.3328 21.333 78.5278 21.333 80C21.333 81.4722 20.1392 82.6672 18.667 82.6672Z" fill="#147FBB"/>
<path d="M157.333 82.6672H141.333C139.861 82.6672 138.667 81.4722 138.667 80C138.667 78.5278 139.861 77.3328 141.333 77.3328H157.333C158.805 77.3328 160 78.5278 160 80C160 81.4722 158.805 82.6672 157.333 82.6672Z" fill="#147FBB"/>
<path d="M66.6663 120C66.2562 120 65.8424 119.907 65.4591 119.712C64.3677 119.158 63.7952 117.928 64.0699 116.733L71.3148 85.3333H58.6671C57.6209 85.3333 56.6749 84.7229 56.2403 83.7756C55.8057 82.8272 55.9656 81.7114 56.6505 80.9229L91.3172 40.9229C92.1204 39.9951 93.451 39.7363 94.5411 40.2905C95.6348 40.8447 96.2086 42.0752 95.9302 43.2691L88.6854 74.6668H101.333C102.379 74.6668 103.325 75.2771 103.76 76.2244C104.194 77.1729 104.034 78.2886 103.35 79.0772L68.6829 119.077C68.1629 119.68 67.4219 120 66.6663 120ZM64.5069 80H74.6668C75.4798 80 76.2476 80.3711 76.7518 81.0059C77.2584 81.6394 77.4451 82.4719 77.2645 83.2666L71.6773 107.48L95.4932 80H85.3333C84.5203 80 83.7525 79.6289 83.2459 78.9941C82.7418 78.3606 82.5526 77.5281 82.7332 76.7334L88.3228 52.5195L64.5069 80Z" fill="#147FBB"/>
<path d="M134.683 137.35C134 137.35 133.318 137.087 132.798 136.569L121.486 125.256C120.443 124.214 120.443 122.528 121.486 121.486C122.528 120.443 124.214 120.443 125.256 121.486L136.569 132.798C137.611 133.84 137.611 135.525 136.569 136.569C136.049 137.087 135.365 137.35 134.683 137.35Z" fill="#147FBB"/>
<path d="M36.6321 39.2957C35.9497 39.2957 35.2661 39.0344 34.7461 38.5144L23.4314 27.2021C22.3889 26.1597 22.3889 24.4751 23.4314 23.4314C24.4714 22.3889 26.1597 22.3889 27.2021 23.4314L38.5168 34.7437C39.5605 35.7861 39.5605 37.4719 38.5168 38.5144C37.9968 39.0369 37.312 39.2957 36.6321 39.2957Z" fill="#147FBB"/>
<path d="M25.3174 137.35C24.635 137.35 23.9514 137.087 23.4314 136.569C22.3889 135.525 22.3889 133.84 23.4314 132.798L34.7461 121.486C35.7898 120.443 37.4768 120.443 38.5168 121.486C39.5605 122.528 39.5605 124.214 38.5168 125.256L27.2021 136.569C26.6821 137.087 25.9998 137.35 25.3174 137.35Z" fill="#147FBB"/>
<path d="M123.37 39.2957C122.688 39.2957 122.006 39.0344 121.486 38.5144C120.443 37.4719 120.443 35.7861 121.486 34.7437L132.798 23.4314C133.84 22.3889 135.525 22.3889 136.569 23.4314C137.611 24.4751 137.611 26.1597 136.569 27.2021L125.256 38.5144C124.734 39.0369 124.053 39.2957 123.37 39.2957Z" fill="#147FBB"/>
</svg>
